<svg width="24" height="24" viewBox="0 0 24 24" fill="none" xmlns="http://www.w3.org/2000/svg">
<g clip-path="url(#clip0_103_373)">
<path d="M22.9127 0.361164C22.982 0.360617 23.0513 0.359648 23.1205 0.35828C23.2223 0.356283 23.324 0.355523 23.4258 0.355042C23.5153 0.354016 23.5153 0.354016 23.6067 0.35297C23.7941 0.378947 23.8713 0.425349 24 0.5625C24.0444 0.873328 24.0444 0.873328 23.9182 1.05579C23.8165 1.16745 23.7159 1.25375 23.5957 1.34473C22.1995 2.46952 21.2979 3.92614 20.9062 5.67188C20.8978 5.70843 20.8894 5.74499 20.8808 5.78265C20.6443 6.87052 20.7118 8.09414 20.8125 9.19629C21.0962 12.3374 20.6843 15.7598 18.7969 18.375C18.761 18.4252 18.7251 18.4754 18.6881 18.5272C18.4659 18.8268 18.225 19.1041 17.9707 19.377C17.9279 19.4229 17.9279 19.4229 17.8842 19.4699C17.2387 20.1503 16.4645 20.6734 15.6562 21.1406C15.6279 21.1573 15.5995 21.1739 15.5702 21.1911C13.4014 22.4522 10.5741 23.1365 8.09528 22.5366C7.55095 22.3919 6.93779 22.1792 6.5083 21.8018C6.47978 21.7847 6.45126 21.7676 6.42188 21.75C6.26516 21.8018 6.12794 21.8742 5.98718 21.9595C4.41948 22.8928 2.58442 23.5224 0.75 23.625C0.70166 23.628 0.65332 23.631 0.603516 23.6342C0.553242 23.636 0.502969 23.6378 0.451172 23.6396C0.40537 23.6414 0.359568 23.6432 0.312378 23.645C0.150536 23.6191 0.0975702 23.5671 0 23.4375C-0.0249023 23.3438 -0.0249023 23.3438 -0.0234375 23.25C-0.0239209 23.2191 -0.0244043 23.1881 -0.0249023 23.1562C0.0123141 23.0161 0.0725925 22.9621 0.1875 22.875C0.330322 22.8428 0.330322 22.8428 0.503906 22.8281C0.571555 22.8213 0.639181 22.8142 0.706787 22.8069C0.743676 22.803 0.780566 22.7991 0.818573 22.7951C2.49376 22.6003 4.41723 22.1654 5.76562 21.0938C5.72384 21.0475 5.72384 21.0475 5.68121 21.0004C4.22652 19.3308 3.68184 17.0434 3.82324 14.8696C4.04349 12.0233 5.42498 9.36541 7.3125 7.26562C7.34561 7.22855 7.34561 7.22855 7.37938 7.19073C7.89281 6.61784 8.42413 6.04449 9.03168 5.57043C9.13183 5.49132 9.22351 5.40767 9.31641 5.32031C9.46904 5.18959 9.59185 5.14866 9.79688 5.15625C9.96138 5.24566 10.0177 5.30397 10.0781 5.48145C10.0781 5.6761 10.0084 5.78452 9.87481 5.9256C9.80036 5.99693 9.72438 6.0661 9.64746 6.13477C9.62217 6.15779 9.59689 6.18081 9.57083 6.20453C9.46139 6.30379 9.35117 6.402 9.23928 6.4985C8.99448 6.70969 8.76266 6.93146 8.53418 7.16016C8.49709 7.19725 8.46 7.23434 8.42179 7.27256C8.19445 7.50212 7.97983 7.73382 7.78217 7.98962C7.70138 8.09181 7.61795 8.18874 7.53149 8.28607C5.6517 10.4234 4.49162 13.3373 4.64701 16.1956C4.75493 17.6496 5.22274 19.1021 6.14062 20.25C6.19551 20.3231 6.25021 20.3963 6.30469 20.4697C6.34371 20.5215 6.38276 20.5733 6.42188 20.625C7.08171 20.5107 7.77586 19.6221 8.15625 19.125C8.19845 19.0707 8.24069 19.0165 8.28296 18.9622C8.58569 18.6305 8.58569 18.6305 8.70725 18.2412C8.67358 18.1009 8.63108 17.9771 8.57465 17.8445C8.55507 17.7976 8.5355 17.7507 8.51533 17.7023C8.49448 17.6526 8.47363 17.603 8.45215 17.5518C8.23527 17.0223 8.05994 16.4925 7.92188 15.9375C7.9141 15.9063 7.90633 15.8751 7.89832 15.8429C7.85304 15.6567 7.81512 15.4699 7.78125 15.2812C7.77164 15.229 7.76203 15.1767 7.75214 15.1229C7.69303 14.7515 7.67411 14.3824 7.66699 14.0068C7.66538 13.9597 7.66377 13.9126 7.66211 13.8641C7.66015 13.5309 7.66015 13.5309 7.79718 13.3762C7.95144 13.2974 8.03227 13.2805 8.20312 13.3125C8.34901 13.4309 8.42715 13.5055 8.4733 13.6898C8.47647 13.7426 8.47964 13.7953 8.48291 13.8497C8.48728 13.909 8.49164 13.9683 8.49614 14.0294C8.49895 14.0762 8.49895 14.0762 8.50182 14.1239C8.51201 14.2885 8.52632 14.4527 8.54077 14.6169C8.54364 14.6498 8.5465 14.6827 8.54945 14.7165C8.6337 15.6343 8.90821 16.5496 9.28125 17.3906C9.40739 17.2777 9.47954 17.1579 9.55939 17.0092C9.59879 16.9361 9.59879 16.9361 9.63898 16.8615C9.66692 16.8089 9.69485 16.7563 9.72363 16.7021C9.75275 16.6476 9.78186 16.5931 9.81186 16.5369C10.0496 16.0903 10.2822 15.6412 10.5027 15.1859C10.5974 14.9906 10.6983 14.8003 10.8034 14.6105C11.0652 14.1673 11.0652 14.1673 11.1459 13.6745C11.082 13.4761 10.9664 13.3197 10.8389 13.1572C10.2568 12.3582 10.1621 11.1257 10.1543 10.1719C10.1536 10.124 10.153 10.0762 10.1523 10.0269C10.155 9.60523 10.155 9.60523 10.3125 9.42188C10.4531 9.32812 10.4531 9.32812 10.6172 9.33691C10.7755 9.37367 10.8297 9.38757 10.9219 9.51562C10.9912 9.65433 10.9694 9.77696 10.9658 9.93164C10.958 10.8448 11.0655 11.7858 11.4882 12.6079C11.5312 12.7031 11.5312 12.7031 11.5312 12.8438C11.5622 12.8438 11.5931 12.8438 11.625 12.8438C11.6298 12.8119 11.6346 12.7801 11.6395 12.7474C11.6786 12.5808 11.7437 12.4317 11.8141 12.2767C11.836 12.2279 11.836 12.2279 11.8582 12.1781C11.9062 12.0708 11.9546 11.9636 12.0029 11.8564C12.0368 11.7809 12.0706 11.7054 12.1044 11.6299C12.1748 11.4726 12.2454 11.3153 12.316 11.1581C12.4174 10.9321 12.5182 10.7059 12.6187 10.4795C12.6346 10.4438 12.6504 10.4082 12.6667 10.3715C12.7453 10.1946 12.8237 10.0177 12.9017 9.84056C13.0329 9.54314 13.1647 9.2464 13.3057 8.95344C13.3479 8.86571 13.3895 8.77772 13.431 8.68965C13.4811 8.58386 13.5323 8.4786 13.5849 8.37404C13.6947 8.13963 13.7615 7.98235 13.6844 7.72852C13.6544 7.65225 13.6242 7.57607 13.5938 7.5C13.5548 7.34685 13.5246 7.19215 13.4941 7.03711C13.4861 6.9963 13.478 6.95549 13.4697 6.91344C13.4116 6.60948 13.3705 6.30963 13.3594 6C13.357 5.95716 13.3545 5.91432 13.3521 5.87018C13.344 5.64164 13.342 5.47743 13.5 5.29688C13.6212 5.20494 13.6776 5.20252 13.8311 5.21191C13.972 5.2509 14.0245 5.27448 14.1094 5.39062C14.1539 5.5242 14.1693 5.63144 14.1813 5.77094C14.1854 5.81785 14.1895 5.86477 14.1937 5.91312C14.1978 5.96209 14.2019 6.01107 14.2061 6.06152C14.2124 6.13417 14.2124 6.13417 14.219 6.20828C14.2384 6.43631 14.2559 6.66152 14.25 6.89062C14.3701 6.78052 14.4495 6.66324 14.5342 6.52441C15.1958 5.47167 16.0263 4.51434 16.9688 3.70312C16.9948 3.68041 17.0209 3.65769 17.0478 3.63428C18.1009 2.72369 19.3241 2.0039 20.5781 1.40625C17.3921 1.7735 14.2321 2.9686 11.5422 4.70032C11.5093 4.72149 11.4764 4.74266 11.4425 4.76447C11.3749 4.80802 11.3075 4.85175 11.2401 4.89562C11.1906 4.92747 11.1906 4.92747 11.14 4.95996C11.1106 4.97899 11.0812 4.99803 11.051 5.01764C10.9195 5.0894 10.8326 5.09474 10.6875 5.0625C10.5333 4.94856 10.464 4.87933 10.4238 4.69043C10.4773 4.42847 10.6595 4.27608 10.8739 4.13324C10.9462 4.08795 11.0188 4.04324 11.0918 3.99902C11.1309 3.97486 11.17 3.9507 11.2104 3.9258C11.3325 3.85082 11.4552 3.77679 11.5781 3.70312C11.6347 3.66924 11.6347 3.66924 11.6923 3.63467C11.949 3.48177 12.2079 3.3332 12.4688 3.1875C12.5209 3.15835 12.5209 3.15835 12.574 3.12861C15.325 1.60387 18.4833 0.718465 21.6094 0.421875C21.6556 0.41749 21.7017 0.413106 21.7493 0.408588C22.1371 0.375205 22.5237 0.363303 22.9127 0.361164ZM21.7394 1.7666C21.679 1.79224 21.679 1.79224 21.6174 1.8184C21.5742 1.83708 21.5309 1.85576 21.4863 1.875C21.4418 1.89422 21.3972 1.91345 21.3513 1.93325C20.4351 2.33231 19.5162 2.7918 18.7031 3.375C18.6693 3.39912 18.6356 3.42325 18.6007 3.4481C18.1609 3.76327 17.7374 4.08135 17.3438 4.45312C17.2844 4.50414 17.2248 4.55492 17.165 4.60547C16.7135 5.00035 16.3056 5.43287 15.9375 5.90625C15.9 5.95284 15.8626 5.99943 15.824 6.04742C15.1861 6.84705 13.9688 8.43864 13.9688 9.46875C14.6984 9.3886 15.3326 9.10704 15.9397 8.70154C16.0909 8.60451 16.1678 8.57799 16.3506 8.58398C16.5 8.625 16.5 8.625 16.5938 8.71875C16.6235 8.9782 16.6235 8.9782 16.5938 9.09375C15.9773 9.81956 14.8719 10.0991 13.9688 10.2188C13.9375 10.2156 13.9063 10.2125 13.8742 10.2093C13.7567 10.2033 13.698 10.2089 13.5938 10.2656C13.4534 10.4705 13.3609 10.6939 13.2656 10.9219C13.2428 10.9732 13.22 11.0246 13.1965 11.0775C13.1272 11.234 13.06 11.3913 12.9932 11.5488C12.8111 11.975 12.6252 12.3993 12.4341 12.8216C12.4152 12.8635 12.3962 12.9055 12.3767 12.9486C12.2827 13.1561 12.1885 13.3635 12.094 13.5707C12.0591 13.6475 12.0242 13.7244 11.9894 13.8012C11.9736 13.8356 11.9578 13.87 11.9415 13.9054C11.8351 14.1406 11.7492 14.3788 11.6719 14.625C12.7592 14.481 13.7256 14.1419 14.6153 13.4848C14.7332 13.3984 14.8131 13.3593 14.959 13.3359C15.0938 13.3594 15.0938 13.3594 15.2051 13.4326C15.3139 13.5959 15.3178 13.6825 15.2812 13.875C15.1733 13.9933 15.0836 14.0669 14.9531 14.1562C14.908 14.1881 14.863 14.2199 14.8165 14.2527C14.1238 14.7278 13.3786 15.0445 12.5625 15.2344C12.5205 15.2448 12.4785 15.2552 12.4352 15.2659C12.2495 15.3078 12.0849 15.329 11.8945 15.3197C11.6682 15.3152 11.4544 15.3147 11.25 15.4219C11.0407 15.6569 10.9479 15.9759 10.8382 16.2658C10.7439 16.4984 10.6225 16.7149 10.5 16.9336C10.4763 16.9766 10.4525 17.0195 10.4281 17.0638C10.121 17.6181 9.8025 18.1643 9.45425 18.6938C9.36606 18.8067 9.36606 18.8067 9.32812 18.9375C10.7969 18.9063 12.3993 18.7027 13.6812 17.9316C13.8785 17.8176 14.0237 17.7881 14.25 17.8125C14.3906 17.9062 14.3906 17.9062 14.4287 18.0645C14.4401 18.2848 14.4401 18.2848 14.3438 18.4219C14.2389 18.4964 14.1394 18.5594 14.0273 18.6211C13.9944 18.6393 13.9616 18.6574 13.9277 18.6762C13.1803 19.0737 12.3605 19.3015 11.5312 19.4531C11.5006 19.4588 11.47 19.4646 11.4385 19.4704C11.0051 19.55 10.5783 19.6034 10.1378 19.6201C10.0958 19.6219 10.0539 19.6237 10.0106 19.6256C9.83906 19.6328 9.66762 19.6399 9.49592 19.6431C8.98127 19.6397 8.98127 19.6397 8.52898 19.845C8.42384 19.9751 8.33688 20.1073 8.25 20.25C8.15657 20.3539 8.05525 20.4469 7.95117 20.54C7.92578 20.5632 7.90039 20.5864 7.87423 20.6103C7.66656 20.7968 7.4477 20.9597 7.21637 21.1161C7.17114 21.1514 7.17114 21.1514 7.125 21.1875C7.125 21.2184 7.125 21.2494 7.125 21.2812C8.84164 22.1853 10.8505 22.114 12.6787 21.5531C15.3287 20.7121 17.5608 19.2482 18.8657 16.7499C19.3539 15.7853 19.6749 14.7482 19.875 13.6875C19.8857 13.6317 19.8857 13.6317 19.8965 13.5749C19.9906 13.0667 20.0355 12.5563 20.0713 12.041C20.0752 11.9847 20.0792 11.9283 20.0832 11.8703C20.1304 11.115 20.1072 10.3743 20.0492 9.62056C19.8491 6.97534 19.9435 4.1961 21.7522 2.07751C21.857 1.953 21.9454 1.82553 22.0312 1.6875C21.9159 1.6875 21.8457 1.72143 21.7394 1.7666Z" fill="white"/>
</g>
<defs>
<clipPath id="clip0_103_373">
<rect width="24" height="24" fill="white"/>
</clipPath>
</defs>
</svg>
