<svg width="24" height="24" viewBox="0 0 24 24" fill="none" xmlns="http://www.w3.org/2000/svg">
<g clip-path="url(#clip0_104_383)">
<path d="M0.7099 1.06567C0.766986 1.06548 0.824072 1.06529 0.882889 1.06509C0.944416 1.06552 1.00594 1.06596 1.06934 1.06641C1.10116 1.06654 1.13298 1.06667 1.16577 1.0668C4.09137 1.08064 7.52479 1.34933 9.75 3.46875C10.5946 4.33018 10.9237 5.62818 10.9687 6.79688C10.9707 6.8379 10.9726 6.87893 10.9746 6.9212C11.0074 8.25159 10.6307 9.56449 9.84375 10.6406C9.86647 10.6867 9.88919 10.7328 9.9126 10.7803C10.1727 11.316 10.3924 11.8617 10.5937 12.4219C10.6079 12.4613 10.6221 12.5006 10.6368 12.5412C11.0732 13.7651 11.3501 15.0353 11.5781 16.3125C11.6687 16.1767 11.7086 16.0736 11.7568 15.9192C11.7731 15.8681 11.7894 15.817 11.8062 15.7643C11.8238 15.7093 11.8413 15.6543 11.8594 15.5977C12.2464 14.4151 12.7594 13.2488 13.4698 12.2223C13.5491 12.0901 13.5881 12.0129 13.5937 11.8594C13.5443 11.7055 13.5443 11.7055 13.4678 11.543C13.1277 10.744 12.9788 9.82026 13.0312 8.95312C13.0341 8.90453 13.0341 8.90453 13.0371 8.85496C13.1073 7.77713 13.3639 6.63554 14.1094 5.8125C14.1325 5.78283 14.1557 5.75316 14.1795 5.7226C15.061 4.62132 16.5858 4.07043 17.9062 3.75C17.9482 3.73969 17.9902 3.72938 18.0334 3.71876C19.5954 3.34368 21.2315 3.2337 22.8345 3.22052C22.9282 3.21975 23.0218 3.21848 23.1154 3.21721C23.1721 3.21725 23.2288 3.2173 23.2872 3.21735C23.3367 3.21721 23.3863 3.21707 23.4374 3.21692C23.6431 3.24243 23.7908 3.3146 23.9461 3.45137C24.0301 3.62459 24.02 3.79117 24.0187 3.98126C24.0189 4.02311 24.0191 4.06497 24.0193 4.10809C24.0196 4.24558 24.0187 4.38302 24.0176 4.52051C24.0174 4.56759 24.0172 4.61468 24.017 4.66319C24.0046 7.34506 23.7571 10.459 21.9844 12.6094C21.9427 12.6614 21.9427 12.6614 21.9001 12.7145C21.1533 13.6064 19.9704 14.0718 18.8352 14.1925C17.7851 14.2771 16.7875 14.1835 15.7969 13.8281C15.7479 13.8108 15.6989 13.7936 15.6484 13.7758C15.1703 13.5926 14.7379 13.3093 14.3437 12.9844C14.3307 13.0187 14.3176 13.053 14.3041 13.0884C14.2543 13.2083 14.1987 13.3168 14.1343 13.4293C12.8016 15.7917 12.1899 18.4465 12.0725 21.1437C12.0706 21.1859 12.0687 21.228 12.0668 21.2714C12.0572 21.4849 12.0484 21.6984 12.0409 21.912C12.0376 21.9914 12.0343 22.0707 12.0309 22.1501C12.0294 22.2049 12.0294 22.2049 12.0278 22.2608C12.0182 22.4716 11.9899 22.6134 11.8594 22.7812C11.6568 22.9259 11.4945 22.9416 11.2557 22.9054C11.0988 22.8574 11.0194 22.7687 10.9219 22.6406C10.8771 22.5064 10.8673 22.4148 10.8633 22.2749C10.8619 22.2288 10.8605 22.1827 10.859 22.1353C10.8576 22.0851 10.8563 22.035 10.8549 21.9833C10.8515 21.8752 10.8481 21.7672 10.8447 21.6591C10.843 21.6023 10.8413 21.5454 10.8395 21.4868C10.7329 18.0762 10.3871 14.5606 8.90625 11.4375C8.73376 11.4375 8.64066 11.4903 8.48437 11.5635C7.02987 12.2133 5.24855 12.2486 3.75787 11.7032C3.30323 11.5269 2.90281 11.2843 2.53125 10.9688C2.48376 10.9306 2.48376 10.9306 2.4353 10.8917C0.685071 9.44331 0.282073 6.71112 0.0756223 4.59833C0.015041 3.9218 -0.0111284 3.2498 -0.0138361 2.5707C-0.0143831 2.47511 -0.0153524 2.37953 -0.0167201 2.28395C-0.0187119 2.14403 -0.0194763 2.00414 -0.0199587 1.8642C-0.0207794 1.82162 -0.0216001 1.77904 -0.0224457 1.73517C-0.0217899 1.54488 -0.0159072 1.43396 0.0803487 1.2663C0.279227 1.09104 0.4497 1.06622 0.7099 1.06567ZM1.125 2.20312C1.05749 4.73096 1.29186 7.84749 3 9.84375C3.02429 9.87312 3.04858 9.90248 3.07361 9.93274C3.68775 10.6148 4.7464 10.8679 5.625 10.9219C6.57102 10.9671 7.50175 10.7919 8.34375 10.3594C7.82762 8.96557 6.40363 7.74897 5.21832 6.92523C5.18243 6.90023 5.14653 6.87523 5.10955 6.84947C5.04136 6.80229 4.97287 6.75553 4.90403 6.7093C4.67641 6.55326 4.44679 6.39295 4.37512 6.11261C4.37835 5.90914 4.38641 5.79601 4.5 5.62207C4.67096 5.51166 4.81411 5.46506 5.01562 5.48438C5.293 5.58432 5.5263 5.7622 5.75684 5.94141C5.82291 5.99198 5.88901 6.04252 5.95514 6.09302C5.98695 6.1174 6.01875 6.14178 6.05152 6.1669C6.16727 6.25455 6.28565 6.33821 6.4043 6.42188C7.54646 7.25114 8.39252 8.31562 9.1875 9.46875C9.62467 9.08606 9.73632 8.19666 9.79687 7.64062C9.85562 6.40182 9.73368 5.2401 8.91412 4.25629C8.00007 3.27681 6.56942 2.83231 5.29687 2.57812C5.25502 2.56968 5.21317 2.56124 5.17005 2.55254C3.83868 2.29122 2.47847 2.22906 1.125 2.20312ZM22.1146 4.37329C22.0784 4.37485 22.0423 4.37642 22.0051 4.37803C19.7488 4.47916 17.0577 4.666 15.2812 6.23438C15.2521 6.25915 15.2229 6.28392 15.1928 6.30945C14.5753 6.87286 14.2554 7.80627 14.2031 8.625C14.1689 9.4205 14.2111 10.156 14.4375 10.9219C14.5995 10.7954 14.7403 10.668 14.874 10.5117C15.2096 10.1204 15.5808 9.78834 15.9844 9.46875C16.0357 9.42722 16.0871 9.38565 16.1384 9.34406C16.7806 8.82683 17.4605 8.40341 18.1875 8.01562C18.2161 8.00012 18.2448 7.98461 18.2743 7.96864C18.8051 7.68215 18.8051 7.68215 19.0781 7.6875C19.26 7.74205 19.3708 7.78805 19.4971 7.93066C19.561 8.09981 19.5978 8.26077 19.5469 8.4375C19.3616 8.6712 19.125 8.77924 18.8613 8.90918C17.7947 9.45329 16.8438 10.1351 15.9844 10.9688C15.9426 11.0087 15.9007 11.0486 15.8577 11.0898C15.5831 11.3572 15.3117 11.6368 15.0937 11.9531C15.0778 12.0956 15.0778 12.0956 15.1716 12.178C16.0671 12.906 17.3096 13.1605 18.4462 13.0686C19.5524 12.9473 20.4736 12.6273 21.2153 11.7649C22.7607 9.80088 22.9205 6.75141 22.875 4.35938C22.6211 4.35802 22.3682 4.36226 22.1146 4.37329Z" fill="white"/>
</g>
<defs>
<clipPath id="clip0_104_383">
<rect width="24" height="24" fill="white"/>
</clipPath>
</defs>
</svg>
