<svg width="24" height="24" viewBox="0 0 24 24" fill="none" xmlns="http://www.w3.org/2000/svg">
<g clip-path="url(#clip0_104_380)">
<path d="M23.9063 0.0644535C24.0484 0.251 24.0184 0.428525 24 0.65625C23.9717 0.816156 23.9296 0.969599 23.8828 1.125C23.8703 1.16746 23.8578 1.20991 23.8449 1.25365C23.7141 1.68123 23.5411 2.08376 23.3438 2.48438C23.3286 2.51542 23.3135 2.54646 23.298 2.57845C23.0746 3.03273 22.8067 3.44164 22.5 3.84375C22.4685 3.88587 22.4369 3.92798 22.4044 3.97137C21.4525 5.18971 20.0137 6.3669 18.4761 6.72308C17.5534 6.94775 17.0589 7.46005 16.4531 8.15625C16.4897 8.1494 16.5263 8.14254 16.5639 8.13548C16.733 8.10399 16.9021 8.07299 17.0713 8.04199C17.1288 8.03121 17.1863 8.02042 17.2455 8.00931C17.6219 7.94079 17.993 7.89514 18.375 7.875C18.4258 7.8722 18.4258 7.8722 18.4776 7.86934C20.1307 7.79716 22.1991 8.21867 23.4844 9.32813C23.557 9.47346 23.5448 9.58964 23.5313 9.75C23.3927 9.96785 23.2223 10.0708 23.001 10.1895C22.9678 10.2076 22.9346 10.2257 22.9004 10.2444C20.8644 11.343 18.5005 11.6205 16.2715 10.96C15.6316 10.7597 15.0358 10.471 14.4375 10.1719C13.4011 11.2083 12.3647 12.2447 11.2969 13.3125C11.6681 13.2197 11.6681 13.2197 12.0469 13.125C14.815 12.4833 17.7129 12.8279 20.1768 14.2881C20.2053 14.305 20.2339 14.3219 20.2633 14.3393C20.4834 14.4744 20.6464 14.5784 20.7158 14.833C20.7193 15.0285 20.6953 15.0807 20.5781 15.2344C20.4655 15.3149 20.3583 15.3837 20.2383 15.4512C20.2035 15.4711 20.1686 15.491 20.1327 15.5115C18.796 16.2616 17.3715 16.7554 15.8438 16.9219C15.7985 16.9271 15.7532 16.9323 15.7066 16.9376C13.3843 17.1605 11.2139 16.5666 9.1875 15.4688C8.95603 15.6629 8.73815 15.8647 8.52522 16.0788C8.47783 16.1262 8.47783 16.1262 8.42948 16.1746C8.32615 16.2779 8.22298 16.3815 8.11982 16.485C8.04778 16.5571 7.97573 16.6292 7.90368 16.7013C7.71485 16.8903 7.52617 17.0795 7.33752 17.2686C7.14466 17.462 6.95168 17.6552 6.7587 17.8484C6.38067 18.2269 6.00279 18.6056 5.625 18.9844C5.65907 18.9737 5.69314 18.963 5.72823 18.952C5.88554 18.9029 6.04293 18.854 6.20032 18.8051C6.28067 18.7799 6.28067 18.7799 6.36263 18.7543C6.8768 18.5949 7.39242 18.4711 7.92188 18.375C7.96218 18.3673 8.00249 18.3597 8.04401 18.3517C9.3951 18.1044 10.9328 18.1209 12.2813 18.375C12.3272 18.3833 12.3732 18.3916 12.4206 18.4001C13.8671 18.6651 16.4049 19.2039 17.2969 20.4844C17.3232 20.6484 17.3232 20.6484 17.2969 20.8125C16.0685 22.2452 13.0839 22.8779 11.2969 23.0156C11.0158 23.0369 10.7348 23.0524 10.4531 23.0625C10.3981 23.0645 10.3432 23.0665 10.2865 23.0685C7.97917 23.1078 5.51398 22.5166 3.5569 21.2653C3.4696 21.2243 3.4696 21.2243 3.38579 21.2636C3.24518 21.3504 3.13557 21.4619 3.02049 21.579C2.99501 21.6045 2.96953 21.6301 2.94328 21.6564C2.85931 21.7407 2.77567 21.8253 2.69202 21.9099C2.63368 21.9685 2.57532 22.0271 2.51694 22.0857C2.36342 22.2398 2.21017 22.3942 2.05699 22.5487C1.81153 22.7962 1.56575 23.0433 1.31983 23.2904C1.23387 23.3768 1.14807 23.4634 1.06229 23.55C1.00983 23.6028 0.957361 23.6556 0.904888 23.7083C0.880974 23.7326 0.85706 23.7568 0.832421 23.7817C0.672825 23.9419 0.611174 23.9961 0.380863 24.0146C0.244464 24.0117 0.191824 24.0025 0.0703165 23.9326C-0.0381819 23.7473 -0.0450783 23.599 3.97209e-06 23.3906C0.0550565 23.3069 0.0550565 23.3069 0.130753 23.2248C0.160633 23.1924 0.190514 23.1599 0.2213 23.1265C0.4426 22.8968 0.66731 22.6708 0.893376 22.4458C0.947566 22.3917 1.00175 22.3376 1.05592 22.2835C1.19737 22.1422 1.33897 22.001 1.48059 21.8599C1.62555 21.7155 1.77036 21.5709 1.9152 21.4263C2.19854 21.1434 2.48204 20.8607 2.76563 20.5781C2.713 20.4726 2.66034 20.3672 2.60767 20.2617C2.59283 20.232 2.578 20.2022 2.56272 20.1716C2.48968 20.0254 2.41615 19.8795 2.33991 19.7349C1.59592 18.3057 1.14572 16.7422 0.984379 15.1406C0.979122 15.0919 0.973865 15.0431 0.968449 14.9929C0.725141 12.2965 1.31809 8.9701 3.04688 6.79688C3.1948 6.69826 3.28992 6.67454 3.46703 6.67969C3.7093 6.73916 3.85535 7.04238 3.97779 7.24237C4.02349 7.3211 4.06863 7.40016 4.11329 7.47949C4.13757 7.52261 4.16185 7.56573 4.18687 7.61015C5.58005 10.1241 6.12453 13.1451 5.625 15.9844C5.61696 16.0307 5.60892 16.077 5.60063 16.1247C5.47434 16.8287 5.28371 17.5079 5.0625 18.1875C5.07797 18.203 5.09344 18.2184 5.10938 18.2344C5.55092 17.7983 5.99183 17.3615 6.43194 16.924C6.63631 16.7208 6.84089 16.5179 7.04596 16.3155C7.24372 16.1203 7.44091 15.9245 7.63771 15.7283C7.71304 15.6534 7.78857 15.5787 7.8643 15.5042C7.97004 15.4002 8.07504 15.2954 8.17989 15.1905C8.21161 15.1596 8.24334 15.1287 8.27603 15.0969C8.30436 15.0682 8.3327 15.0396 8.36189 15.0101C8.38682 14.9853 8.41175 14.9606 8.43744 14.9352C8.49455 14.8606 8.49455 14.8606 8.47298 14.7644C8.42097 14.6287 8.34848 14.5079 8.27637 14.3818C7.68156 13.2995 7.31421 12.0913 7.125 10.875C7.11667 10.8215 7.11667 10.8215 7.10816 10.767C6.76438 8.43779 7.27389 6.04713 8.39942 3.99609C8.41835 3.96146 8.43728 3.92683 8.45679 3.89115C8.74029 3.38767 8.74029 3.38767 8.95313 3.28125C9.13988 3.26907 9.26586 3.26932 9.42188 3.375C9.49511 3.4777 9.55872 3.57661 9.6211 3.68555C9.6393 3.71669 9.65751 3.74784 9.67627 3.77993C10.3148 4.88715 10.7607 6.06073 11.0156 7.3125C11.0234 7.34984 11.0312 7.38719 11.0393 7.42566C11.3753 9.11217 11.1865 10.9334 10.6875 12.5625C10.703 12.578 10.7184 12.5934 10.7344 12.6094C11.1331 12.216 11.5313 11.8221 11.9286 11.4273C12.1131 11.244 12.2978 11.061 12.483 10.8784C12.6616 10.7023 12.8397 10.5257 13.0173 10.3487C13.0853 10.2811 13.1535 10.2137 13.2219 10.1466C13.3175 10.0528 13.4122 9.95822 13.5069 9.86348C13.5355 9.83566 13.5642 9.80785 13.5937 9.77919C13.6805 9.69415 13.6805 9.69415 13.7813 9.5625C13.7605 9.41826 13.7025 9.30048 13.6371 9.17102C13.0216 7.92966 12.6814 6.66038 12.6885 5.26758C12.6886 5.21526 12.6886 5.21526 12.6887 5.16188C12.691 4.60342 12.7209 4.06184 12.8438 3.51563C12.852 3.47843 12.8603 3.44123 12.8689 3.4029C13.0609 2.56796 13.4514 0.969888 14.2031 0.46875C14.4652 0.439165 14.4652 0.439165 14.5781 0.46875C15.6708 1.39675 15.9964 3.38137 16.1094 4.71753C16.1393 5.13724 16.1281 5.55199 16.0898 5.9707C16.084 6.03606 16.084 6.03606 16.078 6.10275C16.0315 6.57454 15.9414 7.0365 15.8438 7.5C16.7082 6.76395 17.1453 6.18602 17.4371 5.08232C17.7503 4.01921 18.5263 3.09221 19.2656 2.29688C19.2961 2.26334 19.3265 2.2298 19.3579 2.19525C19.8795 1.64459 20.5241 1.2058 21.1875 0.84375C21.2316 0.819584 21.2316 0.819584 21.2766 0.79493C23.2141 -0.252767 23.2141 -0.252767 23.9063 0.0644535Z" fill="white"/>
</g>
<defs>
<clipPath id="clip0_104_380">
<rect width="24" height="24" fill="white"/>
</clipPath>
</defs>
</svg>
